<svg xmlns="http://www.w3.org/2000/svg" width="391" height="auto" viewBox="0 0 391 663" fill="none" id="f-intro-bl">
    <g opacity="0.7">
        <path class="path-for-ftv-intro-bl" d="M148.849 282.798L225.615 282.489V301.603H149.201H147.701V303.103V639.926V641.426H149.201H225.615V660.59H1.5V641.426H74.1527H75.6527V639.926V303.103V301.603H74.1527H1.5V282.483H74.1527H75.6527V280.983V233.833C75.6527 151.73 92.6922 93.6401 121.046 56.1106C149.354 18.6406 189.064 1.5 234.862 1.5C253.428 1.5 273.27 5.7817 288.419 15.5774C303.501 25.33 313.962 40.5525 313.962 62.6895C313.962 71.7506 309.431 79.2873 302.85 84.6007C296.251 89.9289 287.681 92.9387 279.864 92.9387C267.234 92.9387 257.804 88.5204 251.505 81.0823C245.177 73.6092 241.869 62.919 241.869 50.1525C241.869 45.5192 243.443 42.9679 245.274 40.0011C245.348 39.8806 245.423 39.7595 245.498 39.6374C247.485 36.4076 249.571 32.755 249.571 26.106C249.571 23.9359 247.749 22.6028 246.049 21.8052C244.227 20.9507 241.815 20.3527 239.306 19.9255C234.259 19.0662 228.39 18.8295 224.966 18.8295C201.148 18.8295 181.684 33.2774 168.255 59.6184C154.846 85.922 147.343 124.248 147.343 172.575V281.298V282.804L148.849 282.798Z" stroke="url(#paint0_linear_532_1222)" stroke-width="3" style="stroke-dasharray: 2383.45px; stroke-dashoffset: 1787.6px;"></path>
        <path class="path-for-ftv-intro-bl" d="M389.499 290.605C389.499 297.19 387.547 303.627 383.888 309.102C380.23 314.577 375.031 318.845 368.947 321.364C362.864 323.884 356.17 324.545 349.712 323.26C343.254 321.975 337.321 318.805 332.665 314.149C328.009 309.493 324.838 303.56 323.554 297.101C322.269 290.643 322.928 283.949 325.448 277.866C327.968 271.783 332.235 266.582 337.71 262.924C343.185 259.265 349.622 257.312 356.207 257.312C365.036 257.312 373.505 260.821 379.748 267.064C385.992 273.308 389.499 281.775 389.499 290.605Z" stroke="url(#paint1_linear_532_1222)" stroke-width="3" style="stroke-dasharray: 209.186px; stroke-dashoffset: 156.89px;"></path>
    </g>
    <defs>
        <linearGradient id="paint0_linear_532_1222" x1="157.934" y1="0" x2="157.934" y2="662.09" gradientUnits="userSpaceOnUse">
            <stop stop-color="#c4c4c4"></stop>
            <stop offset="1" stop-color="#c4c4c4" stop-opacity="0"></stop>
        </linearGradient>
        <linearGradient id="paint1_linear_532_1222" x1="356.251" y1="255.812" x2="356.251" y2="325.399" gradientUnits="userSpaceOnUse">
            <stop stop-color="#c4c4c4"></stop>
            <stop offset="1" stop-color="#c4c4c4" stop-opacity="0"></stop>
        </linearGradient>
    </defs>
</svg>